<?xml version="1.0" encoding="UTF-8" standalone="no"?>
<!-- Created with Inkscape (http://www.inkscape.org/) -->

<svg
   version="1.1"
   id="svg1"
   width="1280"
   height="640"
   viewBox="0 0 1280 640"
   sodipodi:docname="banner.svg"
   inkscape:version="1.4.1 (93de688d07, 2025-03-30)"
   inkscape:export-filename="banner.png"
   inkscape:export-xdpi="96"
   inkscape:export-ydpi="96"
   xmlns:inkscape="http://www.inkscape.org/namespaces/inkscape"
   xmlns:sodipodi="http://sodipodi.sourceforge.net/DTD/sodipodi-0.dtd"
   xmlns="http://www.w3.org/2000/svg"
   xmlns:svg="http://www.w3.org/2000/svg">
  <defs
     id="defs1">
    <rect
       x="268.47119"
       y="302.81052"
       width="126.95149"
       height="118.62681"
       id="rect2" />
    <rect
       x="258.06534"
       y="283.0394"
       width="118.62681"
       height="139.43854"
       id="rect1" />
  </defs>
  <sodipodi:namedview
     id="namedview1"
     pagecolor="#eaeaea"
     bordercolor="#000000"
     borderopacity="0.25"
     inkscape:showpageshadow="2"
     inkscape:pageopacity="0.0"
     inkscape:pagecheckerboard="0"
     inkscape:deskcolor="#d1d1d1"
     inkscape:zoom="0.33976373"
     inkscape:cx="520.95024"
     inkscape:cy="640.15072"
     inkscape:window-width="1440"
     inkscape:window-height="831"
     inkscape:window-x="0"
     inkscape:window-y="0"
     inkscape:window-maximized="1"
     inkscape:current-layer="g1"
     inkscape:export-bgcolor="#e5e7eeff" />
  <g
     inkscape:groupmode="layer"
     inkscape:label="Image"
     id="g1"
     transform="translate(-318.99114,-227.16761)">
    <path
       id="path1"
       style="fill:#464b6c;fill-opacity:1;stroke:#464b6c;stroke-width:2.3;stroke-dasharray:none;stroke-opacity:1"
       d="m 945.73834,292.72486 c -0.68703,0.0439 -1.38665,0.18119 -2.08594,0.42383 -3.25372,1.12903 -4.45089,4.4408 -3.89062,7.66797 2.43763,14.04065 -2.10938,26.4928 -2.10938,41 -8.12262,0.85321 -14.49068,4.48065 -22,5.88867 -10.06421,1.88708 -20.80774,1.17884 -31,2.19336 -24.51849,2.44055 -49.57831,7.11072 -73,14.91797 -14.42972,4.80994 -32.02039,9.99414 -43,21 -15.81094,15.84869 -6.57836,49.4975 -7.89062,69.91601 -0.25235,3.92664 -5.08908,7.50141 -6.88867,11.08399 -3.38086,6.73059 -5.42099,15.4361 -5.19336,23 0.27796,9.23682 3.3634,19.75208 9.22265,27 2.90448,3.59283 7.91718,5.83801 10.02735,10 5.12134,10.10114 2.3837,22.98303 9.19336,33 6.802,10.00568 16.57947,12.75574 27.52929,16 20.34024,6.02649 41.65201,7.44299 62,13 v 2 c -6.88242,2.22668 -16.68264,4.82074 -22.97265,8.10937 -2.94321,1.53882 -3.14655,5.23273 -6.11133,6.58399 -19.58863,8.92773 -54.65219,10.5578 -48.11133,42.30664 0.80799,3.92187 2.18905,7.76031 4.61133,11 6.72735,8.99756 16.99792,11.98846 27.58398,13.77734 4.47113,0.75556 13.7151,-0.0878 16.27735,4.30469 2.69531,4.62049 2.2309,13.64417 2.80469,18.91797 2.04847,18.82825 1.49484,42.35931 21.91796,49.9707 4.19846,1.5647 8.52118,2.80347 13,3.0293 -0.51999,10.31281 -6.13669,23.90881 -14.08398,30.75 -3.10361,2.67163 -7.52845,2.7663 -10.5,5.66601 -3.39838,3.31628 -5.87885,9.55664 -2.16602,13.47266 8.85312,9.33752 26.67609,-6.18231 32.75,-11.91797 6.26303,-5.91425 10.98606,-13.28131 14.77735,-20.9707 1.63342,-3.31287 2.65607,-9.2251 5.52734,-11.64063 2.80243,-2.35754 12.08471,-0.35937 15.69531,-0.35937 15.01706,0 29.8837,0.14001 45,0 4.151,-0.0385 14.26974,-3.43165 17.66604,-0.58399 8.8011,7.3797 1.0196,25.28626 0.4433,33.58399 -0.4266,6.14331 3.8642,10.06317 9.8907,8.88867 5.03173,-0.98072 7.36323,-6.57544 8.97073,-10.88867 4.30583,-11.55359 4.02933,-23.87274 4.02933,-36 11.3416,-0.5719 29.6937,-4.86572 35.0547,-16 5.8291,-12.10669 1.9453,-32.80042 1.9453,-46 26.4725,0 64.1994,4.70465 84.7773,-13.47266 7.9599,-7.03131 11.1245,-21.13525 15.4727,-30.52734 2.2606,-4.88318 5.3883,-9.47693 5.7207,-15 0.3436,-5.70856 -4.9606,-11.2301 -4,-16 2.782,-13.81421 13.9687,-29.37909 20.25,-42 1.9739,-3.96631 6.5386,-10.52399 6.4453,-15 -0.09,-4.30164 -5.8852,-8.21912 -8.666,-11 -13.6155,-13.61542 -30.9361,-8 -49,-8 0,-18.35376 5.0193,-35.88043 3.9707,-54 -0.9798,-16.93048 -7.037,-32.97955 -8.8887,-50 -1.7359,-15.9549 -2.7388,-38.82941 -12.9434,-51.97266 -6.8944,-8.87964 -18.9188,-12.62072 -29.1386,-16.02734 -24.8951,-8.29834 -51.8472,-13.45917 -78.00006,-14.97266 -12.83793,-0.74292 -31.68893,0.33679 -42.89066,-6.75 -2.84909,-1.80249 -1.47943,-5.57904 -1.05469,-8.27734 1.12399,-7.14069 0.84806,-19.76843 4.66602,-25.89063 1.56952,-2.51678 4.50552,-3.05151 5.55664,-6.10937 1.75489,-5.10516 -2.38218,-9.39881 -7.19141,-9.0918 z m 1.42188,5.27735 c 0.91023,0.33816 1.86056,1.44075 2.49218,3.81445 -7.60128,1.02631 -5.22287,-4.82894 -2.49218,-3.81445 z m -8.07032,52.69531 c 29.234,0.0731 58.48997,2.64361 86.5626,7.0625 19.7181,3.10382 49.5826,7.92944 63.916,23.08398 8.6259,9.12018 9.3409,25.19001 11.3047,36.97266 4.5847,27.50836 6.7793,56.12451 6.7793,84 0,9.4422 2.14,21.87036 -0.418,30.9707 -2.0202,7.18683 -20.5667,4.0293 -26.582,4.0293 -17.9052,0 -36.1346,0.93682 -54,1.9707 -10.5003,0.60767 -18.4981,-2.70398 -24,8.0293 l -8.97273,-2.19531 -6.41803,9.19531 -15.85934,30.5 -12.75,1.5 h -33 v -1 c 14.51486,-1.52472 29.82019,-8.97363 39.38868,-20 2.98346,-3.43799 7.67925,-5.35395 10.27736,-9.0293 2.7581,-3.9018 4.4896,-14.94635 5.9433,-19.9707 21.02406,-72.65881 -81.17284,-121.67212 -124.99996,-60 -5.9284,8.34229 -10.47881,18.70532 -11.52734,29 -2.09149,20.53461 4.17709,39.14893 17.30664,55 7.20007,8.6925 24.95977,13.5481 21.61132,26 l -58,-9 c -2.10654,-41.77826 -7.77346,-84.36261 -11.91796,-126 -1.7825,-17.90759 2.67114,-39.76672 -2.55469,-57 -3.27957,-10.81506 -14.92527,-12.99133 -24.52735,-14 4.50455,-4.32556 12.18127,-6.16821 18,-8.39063 15.46408,-5.90637 31.79065,-9.57781 48,-12.80468 27.99152,-5.57245 57.20351,-7.99695 86.4375,-7.92383 z m -148.2207,31.84375 c 7.34316,0.0523 14.26846,3.10329 17.67188,10.27539 2.29464,4.83551 1.11132,11.7851 1.11132,17 0,10.80292 0.0118,22.24805 1.08204,33 2.54926,25.6109 3.44947,51.3764 6,77 1.83197,18.4046 5.91796,37.50372 5.91796,56 -29.35318,-3.08337 -49.47693,-17.87903 -50,-49 10.98203,0.18451 20.17261,1.65942 28.91602,-7.08399 18.0195,-18.01946 12.11218,-58.49279 -12.91602,-67.47265 -8.79467,-3.15546 -15.59839,0.54449 -24,2.55664 v -40 c 0,-6.68323 -1.0112,-13.95691 2.41602,-20 4.22702,-7.45337 14.35957,-12.34259 23.80078,-12.27539 z m 248.8301,23.02539 c -0.9693,0.0904 -1.9846,0.39754 -3.0195,0.9707 -7.3043,4.04553 -1.0907,16.63081 6.9434,12.33399 7.3572,-3.93489 2.8614,-13.93741 -3.9239,-13.30469 z M 886.9942,406.844 c -1.02379,-0.0928 -2.14214,0.0456 -3.3418,0.47266 -9.23911,3.28894 -4.53445,18.45886 5,15 7.96099,-2.88803 5.50835,-14.82298 -1.6582,-15.47266 z m 156.3165,47.85938 c -2.4154,-0.12109 -4.9695,0.0352 -7.6582,0.50195 -45.24686,7.85528 -37.23003,80.24664 9,72.2207 39.9134,-6.92933 34.8887,-70.9064 -1.3418,-72.72265 z m -265.5372,1.00781 c 31.40419,-1.19401 36.34897,63.77157 3.8789,68.88281 -9.6615,1.52088 -18.8084,-7.12158 -23.16796,-14.77734 -9.58267,-16.82813 -7.15414,-49.8382 16.16796,-53.7793 1.06774,-0.18043 2.10806,-0.28765 3.1211,-0.32617 z m 138.85742,2.93359 c 5.6389,-0.0927 12.77083,2.61509 17.02148,4.19922 21.9315,8.17358 37.94569,30.50226 38,53.97266 0.0142,6.13544 -0.003,22.67761 -6.25,26.25 -5.35913,3.06458 -22.16274,-1.25 -28.75,-1.25 l 20,14 c -2.28384,5.93256 -10.36548,9.88122 -16,12.35937 -17.59518,7.73853 -37.35128,5.37018 -54,-3.60937 -29.85373,-16.10168 -34.35263,-48.46173 -25,-77.75 h 1 c -0.83157,7.91638 -1.8865,15.37067 1.41602,23 2.12762,4.91516 5.6402,10.18676 9.61133,13.77734 31.62418,28.59375 74.80343,-13.3966 54.11133,-47.77734 -4.06791,-6.75897 -9.8111,-11.48029 -16.13868,-16 1.38618,-0.79866 3.09889,-1.14097 4.97852,-1.17188 z m -138.13086,3.10157 c -1.53557,-0.0629 -3.15134,0.0897 -4.84766,0.48632 -24.91837,5.82581 -17.89792,61.43574 9,55.33399 23.50851,-5.33283 18.88126,-54.87669 -4.15234,-55.82031 z m 280.15244,6.67968 c 10.7103,0.27338 10.2188,15.93818 0,16.22266 -10.3768,0.28888 -10.3945,-16.48798 0,-16.22266 z m -142.05674,1.3711 c 9.3022,-0.32119 12.21505,14.02741 2.05664,16.51953 -9.95166,2.44141 -13.95427,-13.89545 -4,-16.25 0.67497,-0.15965 1.32322,-0.24812 1.94336,-0.26953 z m 104.95714,2.16406 c 8.993,0.34636 10.2584,15.16197 0.1,16.57617 -9.7002,1.35034 -10.9896,-14.91009 -2,-16.44336 0.6671,-0.11378 1.3008,-0.1559 1.9004,-0.13281 z m -142.00206,4.06836 c 8.95994,0.80074 9.82767,15.64248 0.10156,16.70312 -10.69138,1.16589 -12.11853,-15.46032 -2,-16.66601 0.66853,-0.0797 1.30111,-0.0905 1.89844,-0.0371 z m 270.10166,64.78711 -2,3 h 6 v 2 h -4 v 1 l 9,2 v 1 l -149,4 1,-6 h -1 l -3,4 c 2.7198,-11.16101 25.2999,-8 35,-8 36.0114,0 71.9644,-3 108,-3 z m -8,4 -93,2.91601 -33,1.08399 v 1 l 126,-3 z m -259.0001,47 -0.72265,6.66601 -9.27735,3.36133 -24,7.97266 c 0.0536,-12.75275 23.8363,-18 34,-18 z m 80,10 -13.77929,30 -6.30469,10.27734 -10.91602,0.97266 -10,5.75 c 1.85519,-4.32874 5.03864,-7.97784 3.52735,-13 -0.93722,-3.11444 -4.19879,-5.67029 -4.16797,-9 0.0531,-5.73944 3.31302,-9.42298 -0.83203,-14.97266 -3.2034,-4.28894 -9.48691,-4.14904 -11.52735,-9.02734 z m -96,8.2207 c 6.35788,-0.81708 6.8155,7.22974 8.33204,11.7793 4.34531,13.03589 7.54046,27.22876 7.66796,41 0.0441,4.75818 2.04938,14.47473 -4,15.88867 -8.81815,2.06103 -32.21591,-0.85083 -38.5,-8.13867 -7.81302,-9.06091 -6.25916,-29.93396 -4.55664,-40.75 0.5589,-3.55078 0.936,-8.79035 3.55664,-11.5293 4.23029,-4.4212 21.366,-7.46173 27.5,-8.25 z m -39.70703,8.13086 c 2.99298,0.14677 5.936,0.68205 8.70703,1.64844 -5.29333,18.52625 -2.55865,32.58777 1,51 -11.88983,-1.24896 -30.7912,-3.65088 -38.30664,-14 -15.76607,-21.71061 7.64875,-39.67582 28.59961,-38.64844 z m 114.70703,26.64844 c -2.12411,8.71619 -11.07274,17.13306 -11.66796,26 -0.34369,5.11981 6.3346,9.48663 9.27734,13 6.27076,7.48669 12.31726,6 21.39062,6 11.74115,0 23.25884,-1 35.00007,-1 4.71903,0 9.56933,-1.60095 14.00003,0 -3.4279,7.69666 -8.7627,7.19921 -16.00003,8.38867 -15.21033,2.49975 -32.57508,2.61133 -48.00007,2.61133 -6.49756,0 -13.7081,0.80664 -18.75,-4.25 -8.10944,-8.13318 -4.43262,-25.36926 -2.5,-34.75 0.85303,-4.14056 -0.84249,-8.48547 2.35938,-11.91797 3.67725,-3.9422 9.97341,-3.15234 14.89062,-4.08203 z m -23,24 c 0.79935,7.6095 -0.0263,19.60547 4.47071,26 7.68664,10.92987 20.33152,7 31.52929,7 14.23712,0 33.37014,1.43787 47.0001,-2.69531 6.2859,-1.90613 6.9942,-7.2624 11.5,-10.58399 4.8231,-3.5556 17.6942,-1.7207 23.5,-1.7207 0,11.06665 0.1745,22.02374 -0.918,33 -0.4,4.01855 1.0558,9.16864 -1.582,12.60937 -7.9148,10.32373 -27.5615,11.95264 -39.50003,13.47266 -34.54499,4.39814 -67.48563,2.06299 -102.00007,1.91797 l -6,-55 c 15.49438,0 9.15033,-7.48596 16.69336,-16.5 2.72812,-3.26013 11.37393,-5.48407 15.30664,-7.5 z m -75,8 25.88868,6.94336 5.19336,6.55664 8.97265,2.83203 2.02735,15.66797 3.91796,38 c -11.29706,-0.18988 -30.32562,-3.31269 -37.52929,-13.0293 -3.54382,-4.78003 -2.91894,-11.39477 -3.69336,-16.9707 -1.84717,-13.29974 -4.77735,-26.53589 -4.77735,-40 z"
       sodipodi:nodetypes="scscssccsssssssccscsssssscsssssssscssscscscssscccsccsssssssscsssccsssscccccccsscsssccsscscssssssccsscsssssssscsssssscscscscsscccsccscscsscsssssssssssssssssccccccccccccscccccccccccccccccsssccsssssssssccsscsssscsssssccsssscsccccscccccccssc" />
  </g>
</svg>
