<?xml version="1.0" encoding="UTF-8" standalone="no"?>
<!-- Created with Inkscape (http://www.inkscape.org/) -->

<svg
   viewBox="0 0 512.00001 512"
   version="1.1"
   id="svg1"
   inkscape:version="1.4.2 (ebf0e940d0, 2025-05-08)"
   sodipodi:docname="favicon.svg"
   inkscape:export-filename="favicon.png"
   inkscape:export-xdpi="12"
   inkscape:export-ydpi="12"
   width="512"
   height="512"
   xmlns:inkscape="http://www.inkscape.org/namespaces/inkscape"
   xmlns:sodipodi="http://sodipodi.sourceforge.net/DTD/sodipodi-0.dtd"
   xmlns="http://www.w3.org/2000/svg"
   xmlns:svg="http://www.w3.org/2000/svg">
  <sodipodi:namedview
     id="namedview1"
     pagecolor="#ffffff"
     bordercolor="#000000"
     borderopacity="0.25"
     inkscape:showpageshadow="2"
     inkscape:pageopacity="0.0"
     inkscape:pagecheckerboard="0"
     inkscape:deskcolor="#d1d1d1"
     inkscape:document-units="mm"
     inkscape:zoom="0.85326083"
     inkscape:cx="258.42039"
     inkscape:cy="258.42039"
     inkscape:window-width="1728"
     inkscape:window-height="1011"
     inkscape:window-x="0"
     inkscape:window-y="0"
     inkscape:window-maximized="1"
     inkscape:current-layer="g45" />
  <defs
     id="defs1" />
  <g
     inkscape:label="Calque 1"
     inkscape:groupmode="layer"
     id="layer1"
     transform="translate(325.06889,290.81923)">
    <g
       id="g45"
       transform="matrix(0.9187729,0,0,0.9187729,16.581288,-12.269563)">
      <path
         sodipodi:type="star"
         style="fill:#ffffff;fill-opacity:1;stroke:#2f2f2f;stroke-width:16.1229;stroke-linejoin:round;stroke-dasharray:none;stroke-opacity:1;paint-order:stroke markers fill"
         id="path4"
         inkscape:flatsided="true"
         sodipodi:sides="6"
         sodipodi:cx="-292.96759"
         sodipodi:cy="-228.97636"
         sodipodi:r1="222.99876"
         sodipodi:r2="193.1226"
         sodipodi:arg1="-1.0471976"
         sodipodi:arg2="-0.52359878"
         inkscape:rounded="0"
         inkscape:randomized="0"
         d="m -181.46822,-422.09896 111.499394,193.12258 -111.499374,193.122605 -222.99876,1.1e-5 -111.49939,-193.122586 111.49937,-193.1226 z"
         transform="matrix(0,-1.1524102,1.1524102,0,170.65234,-362.16208)" />
      <path
         id="path1"
         style="fill:#2f2f2f;fill-opacity:1;stroke:none;stroke-width:0.356619"
         d="m -213.15791,-206.88338 c -2.44897,-0.0811 -4.84765,0.75029 -7.10156,2.83789 -5.25472,4.86692 -6.79075,13.66639 -8.68164,20.25391 -5.12733,17.86312 -8.12092,36.59258 -10.32617,55.02148 -2.40161,20.06932 0.42217,39.867744 0.18359,59.91211 -0.14076,11.834052 -3.80522,22.422655 -0.61914,34.234375 5.67579,21.041746 22.59875,36.3339124 30.63867,56.244141 8.31037,20.579979 4.16219,45.568306 8.20899,67.248048 2.41238,12.923506 11.21809,24.855176 11.85742,37.902346 0.62694,12.79509 3.12042,32.2849 0.82422,47.33594 l 10.63086,6.13672 2.04492,-43.69141 c 6.22748,11.18561 14.08537,21.51919 19.79492,33.01367 3.86842,7.78797 5.2197,16.45082 11.03125,23.22657 28.67219,33.42955 69.74404,32.8816 99.94727,2.40039 14.998792,-15.13684 15.169222,-45.81631 34.289063,-57.41797 0,13.57117 -2.302027,29.73525 -0.285157,43.51953 l 12.5722662,-7.25781 c -2.21381624,-16.14737 0.1771963,-37.54973 1.2753906,-50.9336 1.0759823,-13.11387 9.3010242,-25.766414 11.3925782,-39.125001 3.0856,-19.707377 -0.214573,-42.454544 7.388672,-61.134766 8.215014,-20.1828364 26.032873,-36.018068 31.527344,-57.466798 3.048438,-11.900231 -1.064063,-23.607733 -1.357422,-35.457031 -0.457676,-18.490592 3.269445,-36.322814 1.267578,-55.021484 -2.066873,-19.30575 -5.357162,-38.77401 -10.691406,-57.46679 -1.9985,-7.00332 -3.631102,-16.5667 -9.333985,-21.61915 -11.98104,-10.6145 -27.869643,13.63605 -33.61523422,21.61915 -22.59415678,31.39316 -47.06641478,72.67823 -57.82617278,110.042961 -22.269654,-4.137014 -49.984415,-5.276864 -72.138675,0 -10.38383,-37.965131 -34.06093,-77.887391 -56.27344,-110.042961 -4.4854,-6.49318 -16.01277,-23.96315 -26.625,-24.31446 z m -0.24414,18.20117 c 10.90198,5.12699 15.96951,19.1076 21.08789,29.34571 15.08383,30.17152 21.70704,59.341415 21.70704,92.923823 l -24.45508,-19.562501 c 6.72479,12.078778 20.12765,25.272339 14.70898,40.347657 -2.28122,6.346603 -7.15425,11.706425 -11.04101,17.117188 -7.21561,-5.963553 -11.55499,-15.48456 -16.70899,-23.230469 -6.73585,-10.123195 -16.47405,-21.496539 -20.44726,-33.011719 -3.69943,-10.72177 -2.00504,-23.226909 -0.95313,-34.236329 2.2214,-23.24824 4.09516,-49.04485 16.10156,-69.69336 z m 238.480475,1.64649 c 3.999584,-0.0614 5.760378,5.13146 6.853516,8.13476 3.576468,9.82575 6.1079,20.26989 7.859375,30.56836 3.123374,18.36476 8.254896,42.87759 2.777343,61.134766 -5.900561,19.666807 -24.440692,40.498384 -35.8867186,57.464844 -25.6843674,-13.043022 -9.8292137,-40.273589 2.4453125,-56.242188 -9.67395725,3.20866 -17.1938116,11.639643 -23.2304689,19.562501 -4.859251,-7.112753 -2.630265,-19.947318 -1.568359,-28.123048 3.11811,-24.007045 10.9651994,-47.345075 22.8730466,-68.468745 3.1487714,-5.58575 10.2954754,-23.91469 17.8769534,-24.03125 z m -205.466795,33.8125 c 12.43765,18.79617 22.1053,40.07436 30.04687,61.132808 2.10491,5.58142 7.84022,17.019268 5.78125,22.957031 -1.60914,4.640442 -9.70272,6.218351 -13.82031,7.611329 0,-21.616679 -4.35458,-40.769668 -11.42578,-61.134758 -2.93668,-8.45767 -12.12457,-21.76112 -10.58203,-30.56641 z m 174.8437477,0 c -9.1615977,31.81509 -23.2304687,57.517749 -23.2304687,91.701168 l -14.673829,-4.890625 c 0.970631,-21.239358 13.60812,-43.716663 22.929688,-62.357423 4.150155,-8.29911 8.257475,-17.94006 14.9746097,-24.45312 z m -81.1738287,87.759761 c 6.659023,0.301956 13.870693,1.108322 21.263672,2.71875 34.111286,4.405073 68.8410676,31.846682 78.675782,66.0253918 C 15.994175,12.918224 9.089153,27.441452 8.113581,37.515058 4.3941544,75.924445 1.2642126,113.77644 -31.220404,140.22014 -40.661564,111.20575 -61.628422,80.438844 -62.962592,49.741621 -64.595736,12.165574 -36.726966,1.6887949 -6.7672785,19.175214 -21.227381,-9.8508191 -62.609957,-7.0690538 -70.468451,25.288495 c -2.906041,11.96562 0.242969,24.861774 2.568359,36.679688 6.443692,32.74872 25.906546,66.800057 25.669922,100.261727 -0.156689,22.15139 -12.87376,34.604 -34.230469,26.16406 -3.48844,-1.37863 -8.78626,-2.45941 -11.482422,-5.18555 -2.90241,-2.93474 -0.796598,-6.36952 1.882813,-8.45508 8.568923,-6.66962 17.81103,-10.83844 23.054688,-21.08203 15.880455,-31.02274 -28.035342,-42.21099 -50.13477,-32.56445 -20.91719,9.13054 -15.3055,32.06723 -1.21875,44.56445 4.41419,3.91613 12.94089,6.30031 15.833988,11.47266 4.48901,8.02566 -21.129578,15.56712 -26.841798,15.3125 -19.9288,-0.88795 -19.88051,-27.19028 -17.98828,-41.23047 5.3409,-39.62954 35.62561,-84.056393 26.95117,-124.714848 -7.02211,-32.9138726 -49.31818,-36.778242 -63.98437,-7.335938 7.36899,-3.174543 14.02324,-7.455253 22.00781,-9.148438 21.99431,-4.6641847 34.14649,13.803307 34.23437,33.601563 0.15072,33.987982 -22.98234,64.328001 -31.78906,96.591801 -33.0689,-26.91904 -35.54687,-66.192006 -39.33203,-105.150395 -0.90757,-9.341524 -7.08949,-21.489231 -4.89258,-30.566406 2.12275,-8.770653 9.45814,-17.183749 14.53906,-24.455079 16.28538,-23.306233 34.09985,-40.419381 63.92188,-42.792969 0,0 15.0034,-3.624616 34.980469,-2.71875 z m -141.355469,6.386719 c 9.5029,12.45416 22.13522,29.061964 26.90039,44.015626 -17.63875,2.637893 -33.06756,-29.318392 -26.90039,-44.015626 z m 270.214845,0 c 3.408706,14.31782 -2.076755,25.426474 -12.232422,35.439454 -2.078123,2.048818 -10.157672,11.058127 -13.654297,7.564453 -2.665832,-2.663564 2.749742,-9.011326 4.113281,-11.214844 6.483793,-10.477663 12.648155,-23.426445 21.773438,-31.789063 z m -69.650391,80.50586 c -14.70306,-0.17828 -22.641332,13.385434 -26.94336,31.980469 21.604569,-5.362895 31.756864,-6.535456 44.017579,-26.898437 -6.520428,-3.43593 -12.173199,-5.022605 -17.074219,-5.082032 z m -132.273444,1.076172 c -4.99183,0.100771 -10.63858,1.422348 -16.9375,4.00586 v 2.445312 l 13.50196,16.324219 30.51367,8.128906 c -3.0315,-20.526295 -12.10262,-31.206611 -27.07813,-30.904297 z M -185.279,38.737714 c 0,10.241167 -1.62804,27.1716 1.95899,36.66211 1.87003,4.947635 7.93498,6.869031 9.5996,11.744141 1.28299,3.75714 -2.10923,7.549132 -0.92578,11.457031 1.98758,6.563174 13.75724,13.115194 19.9336,14.720704 l 12.22656,-35.457032 z m 180.957034,0 c -7.413956,17.690434 -25.309957,28.323484 -40.34961,39.126954 l 13.449219,36.679692 c 5.466257,-3.11446 17.783544,-9.40111 19.060547,-16.107424 0.7315,-3.841442 -2.574515,-7.729638 -1.27539,-11.447268 1.658103,-4.74487 7.751077,-6.622604 9.599609,-11.576172 3.52033098,-9.433849 1.9328365,-26.491795 1.9609375,-36.675782 z m -7.335938,26.900391 c -0.698912,9.271863 -8.952708,10.772976 -11.96875,18.386719 -2.682163,6.77076 4.282885,11.133457 -3.925781,15.847652 -1.620194,-4.789365 -6.0928,-11.870948 -4.978516,-17.007808 1.519038,-7.002982 14.921495,-14.262557 20.873047,-17.226563 z m -163.839846,1.222656 c 6.20801,1.613746 19.46313,9.05547 20.86719,15.941407 1.02521,5.02826 -3.41922,12.304363 -4.97266,17.070308 l -6.11328,-3.667964 2.88867,-11.703126 z m 81.515627,63.511719 c 7.359136,0.0644 14.852815,1.5764 19.966797,3.73438 v 1.22266 h -39.126954 c 4.57545,-3.63839 11.80102,-5.02147 19.160157,-4.95704 z m -13.044927,17.18555 c 5.3441,7.96164 -3.49659,10.30639 -9.7832,7.33594 v -1.22266 z m 25.675786,1.22266 h 2.445313 l 8.558594,4.89062 c -5.299103,5.40531 -12.834727,3.32577 -11.003907,-4.89062 z m -12.232422,48.2539 c 6.726289,-0.13162 13.454252,0.36148 20.791016,1.875 -6.632728,11.65609 -34.95114,11.63608 -41.57227,0 7.32948,-0.98701 14.05497,-1.74337 20.781254,-1.875 z" />
    </g>
  </g>
</svg>
